<svg xmlns="http://www.w3.org/2000/svg" width="1500" height="430" viewBox="0 0 1500 430" role="img" aria-label="BeeX horizontal logo color">
  <title>BeeX horizontal logo color</title>
  
    <defs>
      <linearGradient id="beexGradient" x1="0" y1="0" x2="1024" y2="1024" gradientUnits="userSpaceOnUse">
        <stop offset="0%" stop-color="#FFC533"/>
        <stop offset="45%" stop-color="#FFB000"/>
        <stop offset="100%" stop-color="#FF8A00"/>
      </linearGradient>
      <clipPath id="iconClip"><path d="M 205.75 56 L 185.48 78.52 L 187.73 114.55 L 271.05 251.91 L 295.82 274.43 L 478.22 357.75 L 482.73 371.26 L 471.47 373.51 L 394.9 350.99 L 370.13 350.99 L 521.01 501.87 L 644.86 391.53 L 716.92 393.78 L 716.92 402.79 L 597.57 513.13 L 716.92 625.72 L 716.92 634.73 L 640.36 634.73 L 518.76 526.64 L 376.89 677.51 L 471.47 645.99 L 482.73 645.99 L 484.98 657.24 L 307.08 747.32 L 277.81 776.59 L 196.74 918.46 L 198.99 956.74 L 210.25 965.75 L 228.27 968 L 568.3 812.62 L 640.36 769.84 L 683.14 729.3 L 816 576.18 L 834.01 537.9 L 838.52 499.61 L 829.51 461.33 L 809.24 427.56 L 680.89 274.43 L 638.1 238.4 L 588.56 209.13 L 246.28 60.5 Z"/></clipPath>
      <symbol id="beexIcon" viewBox="0 0 1024 1024">
        <path d="M 205.75 56 L 185.48 78.52 L 187.73 114.55 L 271.05 251.91 L 295.82 274.43 L 478.22 357.75 L 482.73 371.26 L 471.47 373.51 L 394.9 350.99 L 370.13 350.99 L 521.01 501.87 L 644.86 391.53 L 716.92 393.78 L 716.92 402.79 L 597.57 513.13 L 716.92 625.72 L 716.92 634.73 L 640.36 634.73 L 518.76 526.64 L 376.89 677.51 L 471.47 645.99 L 482.73 645.99 L 484.98 657.24 L 307.08 747.32 L 277.81 776.59 L 196.74 918.46 L 198.99 956.74 L 210.25 965.75 L 228.27 968 L 568.3 812.62 L 640.36 769.84 L 683.14 729.3 L 816 576.18 L 834.01 537.9 L 838.52 499.61 L 829.51 461.33 L 809.24 427.56 L 680.89 274.43 L 638.1 238.4 L 588.56 209.13 L 246.28 60.5 Z"/>
      </symbol>
    </defs>
    
<g transform="translate(56 55) scale(0.302734)"><path d="M 205.75 56 L 185.48 78.52 L 187.73 114.55 L 271.05 251.91 L 295.82 274.43 L 478.22 357.75 L 482.73 371.26 L 471.47 373.51 L 394.9 350.99 L 370.13 350.99 L 521.01 501.87 L 644.86 391.53 L 716.92 393.78 L 716.92 402.79 L 597.57 513.13 L 716.92 625.72 L 716.92 634.73 L 640.36 634.73 L 518.76 526.64 L 376.89 677.51 L 471.47 645.99 L 482.73 645.99 L 484.98 657.24 L 307.08 747.32 L 277.81 776.59 L 196.74 918.46 L 198.99 956.74 L 210.25 965.75 L 228.27 968 L 568.3 812.62 L 640.36 769.84 L 683.14 729.3 L 816 576.18 L 834.01 537.9 L 838.52 499.61 L 829.51 461.33 L 809.24 427.56 L 680.89 274.43 L 638.1 238.4 L 588.56 209.13 L 246.28 60.5 Z" fill="url(#beexGradient)"/>
        <g clip-path="url(#iconClip)">
          <path d="M 260 364 C 353 395 430 438 504 514 L 456 574 C 398 502 328 458 236 426 Z" fill="#C97100" opacity="0.16"/>
          <path d="M 354 544 L 498 474 L 543 520 L 423 588 Z" fill="#FFFFFF" opacity="0.10"/>
        </g></g>
<text x="430" y="270" font-size="210" font-weight="800" letter-spacing="-9" style="font-family: Inter, Satoshi, 'Avenir Next', 'Helvetica Neue', Arial, sans-serif;"><tspan fill="#0D1321">Bee</tspan><tspan fill="#FF8A00">X</tspan></text>
</svg>
